<svg width="50" height="50" viewBox="0 0 50 50" fill="none" xmlns="http://www.w3.org/2000/svg">
<g id="bxl:apple">
<path id="Vector" d="M40.9688 35.0229C40.3919 36.3677 39.6791 37.6501 38.8417 38.85C37.7229 40.4479 36.8042 41.5521 36.1 42.1667C35.0062 43.1709 33.8312 43.6875 32.575 43.7167C31.675 43.7167 30.5875 43.4604 29.3208 42.9396C28.05 42.4209 26.8833 42.1667 25.8146 42.1667C24.6958 42.1667 23.4958 42.4209 22.2104 42.9396C20.9271 43.4604 19.8896 43.7334 19.0958 43.7584C17.8937 43.8104 16.6917 43.2813 15.4937 42.1667C14.7292 41.5 13.7729 40.3542 12.625 38.7334C11.3958 37.0063 10.3854 34.9959 9.59375 32.7104C8.74583 30.2375 8.32083 27.8459 8.32083 25.5292C8.32083 22.8771 8.89375 20.5875 10.0417 18.6709C10.9099 17.1656 12.1511 15.9093 13.6458 15.0229C15.1197 14.1389 16.8023 13.6629 18.5208 13.6438C19.4792 13.6438 20.7354 13.9396 22.2917 14.5229C23.8479 15.1063 24.8479 15.4021 25.2833 15.4021C25.6125 15.4021 26.7187 15.0542 28.6021 14.3646C30.3792 13.725 31.8792 13.4604 33.1083 13.5646C36.4417 13.8334 38.9437 15.1459 40.6083 17.5125C37.6292 19.3188 36.1562 21.8459 36.1854 25.0896C36.2104 27.6167 37.1292 29.7188 38.9292 31.3875C39.7249 32.1491 40.6534 32.7584 41.6687 33.1854C41.4479 33.825 41.2146 34.4354 40.9688 35.0229ZM33.3292 4.95836C33.3292 6.93753 32.6042 8.78753 31.1646 10.4979C29.4229 12.5313 27.3187 13.7084 25.0375 13.5229C25.0077 13.2741 24.993 13.0236 24.9937 12.7729C24.9937 10.8709 25.8187 8.83753 27.2917 7.17295C28.025 6.33128 28.9583 5.6292 30.0896 5.07086C31.2187 4.52086 32.2854 4.2167 33.2896 4.16461C33.3167 4.43128 33.3292 4.69586 33.3292 4.95836Z" fill="white"/>
</g>
</svg>
