<svg width="44" height="44" viewBox="0 0 44 44" fill="none" xmlns="http://www.w3.org/2000/svg">
<path id="&#226;&#128;&#156;" d="M18.773 44V22.891H10.0531C10.0531 19.5099 10.6696 16.677 11.9028 14.3925C13.1359 12.0166 15.4259 10.2347 18.773 9.04674V0C16.0425 0.365525 13.4882 1.23365 11.11 2.60436C8.81997 3.8837 6.83818 5.52856 5.16467 7.53894C3.49116 9.54933 2.16996 11.8795 1.20108 14.5296C0.320289 17.1796 -0.0760686 20.0125 0.0120108 23.028V44H18.773ZM44 44V22.891H35.2801C35.2801 19.5099 35.8967 16.677 37.1298 14.3925C38.3629 12.0166 40.653 10.2347 44 9.04674V0C41.2695 0.365525 38.7152 1.23365 36.3371 2.60436C34.047 3.8837 32.0652 5.52856 30.3917 7.53894C28.7182 9.54933 27.397 11.8795 26.4281 14.5296C25.5473 17.1796 25.151 20.0125 25.239 23.028V44H44Z" fill="#EEEEEE"/>
</svg>
