<svg width="100" height="28" viewBox="0 0 100 28" fill="none" xmlns="http://www.w3.org/2000/svg">
<g id="Hero slide">
<g id="Group 68">
<g id="Union">
<path d="M0 28H18.0937V22.4H5.53082V0H0V28Z" fill="black"/>
<path d="M20.61 28H38.4666V22.4H26.1408V16.8H38.4666V11.2H26.1408V5.6H38.4666V0H20.61V28Z" fill="black"/>
<path d="M73.3426 28H91.0677V22H79.158V0H73.3426V28Z" fill="black"/>
<path d="M45.9102 0H39.9553L52.8575 27.5H59.3086L45.9102 0Z" fill="black"/>
<path d="M70.722 0H64.7672L59.8117 12.6746C58.8535 15.1253 58.8937 17.858 59.9235 20.2791L61.2935 23.5L70.722 0Z" fill="black"/>
<path d="M100 28C100 24.6863 97.3339 22 94.0452 22V28H100Z" fill="black"/>
</g>
<path id="Union_2" d="M100 28C100 24.6863 97.3339 22 94.0452 22V28H100Z" fill="#FF5F32"/>
</g>
</g>
</svg>
